<?xml version="1.0" encoding="utf-8"?>
<!-- Generator: Adobe Illustrator 24.2.0, SVG Export Plug-In . SVG Version: 6.00 Build 0)  -->
<svg version="1.1" id="Layer_1" xmlns="http://www.w3.org/2000/svg" xmlns:xlink="http://www.w3.org/1999/xlink" x="0px" y="0px"
	 viewBox="0 0 512 512" style="enable-background:new 0 0 512 512;" xml:space="preserve">
<style type="text/css">
	.st0{fill:#FFFFFF;}
</style>
<g id="coronavirus-covid19-virus-insurance-protect">
	<path class="st0" d="M424,352c-5.7,0-10.9,3.1-13.8,8h-11.4c-0.7-2.9-1.9-5.6-3.4-8.2l8-8c1.3,0.4,2.7,0.6,4.1,0.6
		c8.8,0,16-7.1,16.1-15.9c0-8.8-7.1-16-15.9-16.1c-8.8,0-16,7.1-16.1,15.9c0,1.4,0.2,2.8,0.5,4.2l-8,8c-2.5-1.5-5.3-2.7-8.2-3.4
		v-11.4c7.7-4.4,10.3-14.2,5.9-21.9s-14.2-10.3-21.9-5.9c-7.7,4.4-10.3,14.2-5.9,21.9c1.4,2.4,3.4,4.5,5.9,5.9v11.4
		c-2.9,0.7-5.6,1.9-8.2,3.4l-8-8c2.2-8.5-2.9-17.2-11.4-19.5c-8.5-2.2-17.2,2.9-19.5,11.4c-2.2,8.5,2.9,17.2,11.4,19.5
		c1.3,0.3,2.7,0.5,4.1,0.5c1.4,0,2.8-0.2,4.1-0.6l8,8c-1.5,2.5-2.7,5.3-3.4,8.2h-11.4c-4.4-7.7-14.2-10.3-21.9-5.9
		s-10.3,14.2-5.9,21.9c4.4,7.7,14.2,10.3,21.9,5.9c2.4-1.4,4.5-3.4,5.9-5.9h11.4c0.7,2.9,1.9,5.6,3.4,8.2l-8,8
		c-8.5-2.3-17.3,2.8-19.6,11.3s2.8,17.3,11.3,19.6c8.5,2.3,17.3-2.8,19.6-11.3c0.7-2.7,0.7-5.6,0-8.3l8-8c2.5,1.5,5.3,2.7,8.2,3.4
		v11.4c-7.7,4.4-10.3,14.2-5.9,21.9s14.2,10.3,21.9,5.9c7.7-4.4,10.3-14.2,5.9-21.9c-1.4-2.4-3.4-4.5-5.9-5.9v-11.4
		c2.9-0.7,5.6-1.9,8.2-3.4l8,8c-2.3,8.5,2.8,17.3,11.3,19.6s17.3-2.8,19.6-11.3c2.3-8.5-2.8-17.3-11.3-19.6c-2.7-0.7-5.6-0.7-8.3,0
		l-8-8c1.5-2.5,2.7-5.3,3.4-8.2h11.4c4.4,7.7,14.2,10.3,21.9,5.9c7.7-4.4,10.3-14.2,5.9-21.9C435.1,355,429.7,352,424,352z M368,384
		c-8.8,0-16-7.2-16-16s7.2-16,16-16s16,7.2,16,16S376.8,384,368,384z"/>
	<path class="st0" d="M441.2,306.1C451,276.4,456,245.3,456,214V88c0-3.4-2.2-6.5-5.5-7.6l-192-64c-1.6-0.5-3.4-0.5-5.1,0l-192,64
		C58.2,81.5,56,84.6,56,88v126c-0.4,112.2,63.1,214.9,163.6,264.8l32.8,16.4c2.3,1.1,4.9,1.1,7.2,0l32.8-16.4
		c13.1-6.6,25.7-14.1,37.7-22.6c48.6,21,105.1-1.4,126.1-50C470.7,372.7,464.9,333.9,441.2,306.1z M285.2,464.5L256,479.1
		l-29.2-14.6C131.7,417.3,71.6,320.2,72,214V93.8l184-61.3l184,61.3V214c0,26.9-3.9,53.7-11.5,79.5c-8.6-7-18.3-12.4-28.8-16
		c5.5-20.7,8.3-42.1,8.3-63.5v-91.4c0-3.4-2.2-6.5-5.5-7.6l-144-48c-1.6-0.5-3.4-0.5-5.1,0l-144,48c-3.3,1.1-5.5,4.1-5.5,7.6V214
		c-0.3,94,52.8,180.1,137.1,221.8l11.4,5.7c2.3,1.1,4.9,1.1,7.2,0l11.4-5.7c6.8-3.4,13.4-7.2,19.7-11.1c6.5,8.9,14.4,16.6,23.5,22.8
		C304.9,453.7,295.2,459.4,285.2,464.5L285.2,464.5z M392,214c0,20.1-2.7,40.1-7.8,59.5c-52.1-9.1-101.7,25.8-110.8,77.9
		c-3.6,20.4-0.4,41.3,8.9,59.7c-6,3.7-12.1,7.2-18.5,10.4l-7.8,3.8l-7.8-3.9C169.4,382.4,119.7,302,120,214v-85.7L256,83l136,45.3
		V214z M368,448c-44.2,0-80-35.8-80-80s35.8-80,80-80s80,35.8,80,80C448,412.2,412.2,448,368,448z"/>
	<path class="st0" d="M189.1,204.5c-3.2-3-8.1-3-11.3,0l-22.6,22.6c-3.1,3.1-3.1,8.2,0,11.3l79.2,79.2c3.1,3.1,8.2,3.1,11.3,0
		l129.1-129.1c3.1-3.1,3.1-8.2,0-11.3l-22.6-22.6c-3.2-3-8.1-3-11.3,0L240,255.4L189.1,204.5z M346.5,171.5l11.3,11.3L240,300.7
		l-67.9-67.9l11.3-11.3l50.9,50.9c3.2,3,8.1,3,11.3,0L346.5,171.5z"/>
</g>
</svg>
